<svg width="24" height="24" viewBox="0 0 24 24" fill="none" xmlns="http://www.w3.org/2000/svg">
<mask id="mask0_30_1155" style="mask-type:alpha" maskUnits="userSpaceOnUse" x="0" y="0" width="24" height="24">
<rect width="24" height="24" fill="#D9D9D9"/>
</mask>
<g mask="url(#mask0_30_1155)">
<g filter="url(#filter0_d_30_1155)">
<path d="M10.6532 7.71905C11.0399 6.36415 12.9601 6.36415 13.3468 7.71905C13.5542 8.44586 14.3009 8.87697 15.034 8.6932C16.4008 8.35062 17.3608 10.0135 16.3808 11.0258C15.8551 11.5689 15.8551 12.4311 16.3808 12.9742C17.3608 13.9865 16.4008 15.6494 15.034 15.3068C14.3009 15.123 13.5542 15.5541 13.3468 16.2809C12.9601 17.6359 11.0399 17.6359 10.6532 16.2809C10.4458 15.5541 9.69911 15.123 8.96597 15.3068C7.59925 15.6494 6.63917 13.9865 7.61921 12.9742C8.14494 12.4311 8.14494 11.5689 7.61921 11.0258C6.63917 10.0135 7.59925 8.35062 8.96597 8.6932C9.69911 8.87697 10.4458 8.44586 10.6532 7.71905Z" fill="#FFAE64"/>
<path d="M17.5236 12C19.4234 9.92111 17.5121 6.61057 14.7618 7.21644C13.9113 4.53168 10.0887 4.53168 9.23821 7.21644C6.48792 6.61057 4.57658 9.92111 6.47642 12C4.57658 14.0789 6.48792 17.3894 9.23821 16.7836C10.0887 19.4683 13.9113 19.4683 14.7618 16.7836C17.5121 17.3894 19.4234 14.0789 17.5236 12Z" stroke="white" stroke-width="3" stroke-linejoin="round"/>
</g>
</g>
<defs>
<filter id="filter0_d_30_1155" x="-0.795166" y="-0.297119" width="25.5903" height="26.5942" filterUnits="userSpaceOnUse" color-interpolation-filters="sRGB">
<feFlood flood-opacity="0" result="BackgroundImageFix"/>
<feColorMatrix in="SourceAlpha" type="matrix" values="0 0 0 0 0 0 0 0 0 0 0 0 0 0 0 0 0 0 127 0" result="hardAlpha"/>
<feOffset dy="1"/>
<feGaussianBlur stdDeviation="2.5"/>
<feComposite in2="hardAlpha" operator="out"/>
<feColorMatrix type="matrix" values="0 0 0 0 0 0 0 0 0 0 0 0 0 0 0 0 0 0 0.2 0"/>
<feBlend mode="normal" in2="BackgroundImageFix" result="effect1_dropShadow_30_1155"/>
<feBlend mode="normal" in="SourceGraphic" in2="effect1_dropShadow_30_1155" result="shape"/>
</filter>
</defs>
</svg>
