<svg width="61" height="96" viewBox="0 0 61 96" fill="none" xmlns="http://www.w3.org/2000/svg">
<path d="M19.4736 65.3782V66.7995H36.4968V65.3782C36.5613 56.3338 39.7854 52.1346 47.0719 47.8062C55.519 42.7026 61 35.9838 61 25.3244C61 9.36743 48.297 0 30.3066 0C13.7992 0 0.32241 8.7214 0 26.8748H18.3129C18.5708 19.3163 24.1808 15.3109 30.1776 15.2463C36.4323 15.3109 41.4619 19.5101 41.3975 25.9704C41.4619 31.9139 37.1416 35.9192 31.5962 39.537C23.8584 44.3822 19.5381 49.2921 19.4736 65.3782ZM17.5391 85.1467C17.4101 91.1548 22.3108 96 28.3721 96C34.111 96 39.0761 91.1548 39.0761 85.1467C39.0761 79.2032 34.111 74.358 28.3721 74.4226C22.3108 74.358 17.4101 79.2032 17.5391 85.1467Z" fill="#A5A5A5"/>
</svg>
