<svg width="77" height="50" viewBox="0 0 77 50" fill="none" xmlns="http://www.w3.org/2000/svg">
<g filter="url(#filter0_d_24_572)">
<path d="M51.2645 6.38266H48.0255C45.9564 6.38531 43.9495 7.09534 42.3334 8.39649C40.7173 9.69764 39.5877 11.5128 39.1298 13.5448C39.0519 11.8116 38.3864 10.1578 37.2442 8.85893C36.5587 8.07185 35.7189 7.43617 34.7776 6.99189C33.8363 6.54761 32.8138 6.30436 31.7746 6.27745C30.7352 6.24575 29.7003 6.42821 28.7334 6.81363C27.7666 7.19905 26.8881 7.77931 26.1518 8.51882L24.5797 10.1044L23.0683 8.57999C21.6947 7.18341 19.8439 6.3667 17.8932 6.29623C15.9424 6.22576 14.0384 6.90684 12.5689 8.20071C11.7874 8.89226 11.1561 9.73886 10.7146 10.6875C10.273 11.6361 10.0308 12.6663 10.0029 13.7136C9.97416 14.7594 10.1568 15.8002 10.5399 16.7727C10.9229 17.7453 11.4983 18.6292 12.2311 19.3709L13.8057 20.954L12.2919 22.4784C10.9052 23.8613 10.0942 25.7246 10.0243 27.6886C9.95429 29.6526 10.6305 31.5697 11.9152 33.0491C12.602 33.836 13.4427 34.4718 14.3847 34.9164C15.3267 35.361 16.3498 35.605 17.3897 35.633H17.6181C19.6381 35.6275 21.5746 34.8204 23.0076 33.3867L24.5797 31.8011L26.0911 33.3256C27.4648 34.7221 29.3155 35.5389 31.2662 35.6093C33.217 35.6798 35.121 34.9987 36.5905 33.7048C38.0696 32.3963 38.9825 30.5577 39.1346 28.581C39.5958 30.609 40.726 32.4196 42.3408 33.7173C43.9556 35.015 45.9595 35.7231 48.0255 35.726H51.2669C60.2575 35.726 66.5508 29.6968 66.5508 21.0641C66.5508 12.4314 60.2648 6.38266 51.2645 6.38266Z" fill="white"/>
</g>
<path d="M38.9136 18.8621H36.7268C36.1792 18.8627 35.6542 19.082 35.267 19.472C34.8798 19.8619 34.662 20.3905 34.6614 20.9419C34.662 21.4933 34.8798 22.022 35.267 22.4119C35.6542 22.8018 36.1792 23.0212 36.7268 23.0218H38.9136C39.4612 23.0212 39.9862 22.8018 40.3734 22.4119C40.7606 22.022 40.9784 21.4933 40.979 20.9419C40.9784 20.3905 40.7606 19.8619 40.3734 19.472C39.9862 19.082 39.4612 18.8627 38.9136 18.8621Z" fill="#FD6463"/>
<path d="M51.2644 10.8972H48.0254C46.8022 10.9011 45.6301 11.3921 44.7651 12.2632C43.9002 13.1342 43.4125 14.3145 43.4087 15.5463V26.5232C43.4125 27.755 43.9002 28.9353 44.7651 29.8063C45.6301 30.6774 46.8022 31.1684 48.0254 31.1723H51.2669C57.8275 31.1723 62.0555 27.1936 62.0555 21.0372C62.0555 14.8808 57.8178 10.8972 51.2644 10.8972ZM56.9334 21.0641C56.9334 24.7076 54.8048 26.7972 51.1017 26.7972H49.4008C49.0375 26.7966 48.6893 26.651 48.4324 26.3923C48.1755 26.1336 48.0309 25.783 48.0303 25.4172V16.6866C48.0309 16.3208 48.1755 15.9701 48.4324 15.7115C48.6893 15.4528 49.0375 15.3072 49.4008 15.3065H51.1017C54.7513 15.2968 56.9334 17.45 56.9334 21.0641Z" fill="#FD6463"/>
<path d="M33.4883 25.9848L28.7646 21.2281C28.7271 21.1905 28.6974 21.1459 28.6771 21.0968C28.6568 21.0477 28.6464 20.995 28.6464 20.9418C28.6464 20.8886 28.6568 20.8359 28.6771 20.7867C28.6974 20.7376 28.7271 20.693 28.7646 20.6555L33.43 15.9574C33.942 15.4563 34.2451 14.7775 34.2777 14.0593C34.3102 13.341 34.0696 12.6372 33.6049 12.0913C33.3564 11.8061 33.0519 11.5758 32.7107 11.4149C32.3694 11.254 31.9988 11.1661 31.6221 11.1566C31.2456 11.1449 30.8708 11.211 30.5206 11.3507C30.1704 11.4904 29.8523 11.7008 29.5859 11.969L24.8622 16.7257C24.825 16.7635 24.7807 16.7934 24.7319 16.8139C24.6831 16.8343 24.6308 16.8448 24.5779 16.8448C24.5251 16.8448 24.4728 16.8343 24.424 16.8139C24.3752 16.7934 24.3309 16.7635 24.2936 16.7257L19.6283 12.0277C19.1307 11.512 18.4566 11.2068 17.7433 11.174C17.0301 11.1413 16.3312 11.3836 15.7891 11.8515C15.5059 12.1018 15.2772 12.4084 15.1174 12.752C14.9577 13.0956 14.8703 13.4689 14.8609 13.8482C14.8495 14.2273 14.9151 14.6048 15.0538 14.9574C15.1926 15.31 15.4014 15.6303 15.6676 15.8987L20.3913 20.6555C20.4287 20.693 20.4585 20.7376 20.4788 20.7867C20.4991 20.8359 20.5095 20.8886 20.5095 20.9418C20.5095 20.995 20.4991 21.0477 20.4788 21.0968C20.4585 21.1459 20.4287 21.1905 20.3913 21.2281L15.7259 25.9261C15.2138 26.4272 14.9107 27.106 14.8782 27.8243C14.8457 28.5426 15.0863 29.2463 15.551 29.7922C15.7995 30.0774 16.104 30.3077 16.4452 30.4686C16.7864 30.6295 17.1571 30.7174 17.5337 30.727H17.6164C18.3456 30.7236 19.044 30.4308 19.5602 29.9121L24.2839 25.1553C24.3212 25.1176 24.3655 25.0877 24.4143 25.0672C24.4631 25.0468 24.5154 25.0363 24.5682 25.0363C24.621 25.0363 24.6734 25.0468 24.7222 25.0672C24.771 25.0877 24.8153 25.1176 24.8525 25.1553L29.5178 29.8534C30.0154 30.3691 30.6895 30.6743 31.4028 30.7071C32.1161 30.7398 32.8149 30.4975 33.357 30.0296C33.6403 29.7793 33.869 29.4727 34.0287 29.1291C34.1885 28.7855 34.2758 28.4122 34.2852 28.0329C34.2976 27.6549 34.2333 27.2783 34.0963 26.9262C33.9593 26.574 33.7524 26.2537 33.4883 25.9848Z" fill="#FD6463"/>
<defs>
<filter id="filter0_d_24_572" x="0" y="0.273926" width="76.5508" height="49.4521" filterUnits="userSpaceOnUse" color-interpolation-filters="sRGB">
<feFlood flood-opacity="0" result="BackgroundImageFix"/>
<feColorMatrix in="SourceAlpha" type="matrix" values="0 0 0 0 0 0 0 0 0 0 0 0 0 0 0 0 0 0 127 0" result="hardAlpha"/>
<feOffset dy="4"/>
<feGaussianBlur stdDeviation="5"/>
<feComposite in2="hardAlpha" operator="out"/>
<feColorMatrix type="matrix" values="0 0 0 0 0 0 0 0 0 0 0 0 0 0 0 0 0 0 0.2 0"/>
<feBlend mode="normal" in2="BackgroundImageFix" result="effect1_dropShadow_24_572"/>
<feBlend mode="normal" in="SourceGraphic" in2="effect1_dropShadow_24_572" result="shape"/>
</filter>
</defs>
</svg>
