<svg width="22" height="22" viewBox="0 0 22 22" fill="none" xmlns="http://www.w3.org/2000/svg">
<path d="M12.6725 9.32741C11.7851 8.44042 10.5818 7.94214 9.32717 7.94214C8.07251 7.94214 6.8692 8.44042 5.98184 9.32741L2.63542 12.6727C1.74804 13.5601 1.24951 14.7637 1.24951 16.0186C1.24951 17.2736 1.74804 18.4771 2.63542 19.3645C3.5228 20.2519 4.72635 20.7504 5.98129 20.7504C7.23624 20.7504 8.43979 20.2519 9.32717 19.3645L10.9998 17.6918" stroke="white" stroke-width="2" stroke-linecap="round" stroke-linejoin="round"/>
<path d="M9.32715 12.6727C10.2145 13.5597 11.4178 14.058 12.6725 14.058C13.9271 14.058 15.1304 13.5597 16.0178 12.6727L19.3642 9.32741C20.2516 8.44003 20.7501 7.23648 20.7501 5.98154C20.7501 4.72659 20.2516 3.52304 19.3642 2.63566C18.4769 1.74828 17.2733 1.24976 16.0184 1.24976C14.7634 1.24976 13.5599 1.74828 12.6725 2.63566L10.9998 4.30833" stroke="white" stroke-width="2" stroke-linecap="round" stroke-linejoin="round"/>
</svg>
