<svg width="25" height="25" viewBox="0 0 25 25" fill="none" xmlns="http://www.w3.org/2000/svg">
<path d="M0 11.1111V0H11.1111V11.1111H0ZM4.16667 4.16667V6.94444H6.94444V4.16667H4.16667ZM13.8889 11.1111V0H25V11.1111H13.8889ZM18.0556 4.16667V6.94444H20.8333V4.16667H18.0556ZM0 13.8889V25H11.1111V13.8889H0ZM6.94444 18.0556V20.8333H4.16667V18.0556H6.94444ZM18.0556 13.8889H13.8889V16.6667H18.0556V22.2222H16.6667V19.4444H13.8889V25H19.4444V22.2222H22.2222V25H25V20.8333H22.2222V19.4444H20.8333V18.0556H25V13.8889H20.8333V16.6667H18.0556V13.8889Z" fill="black"/>
</svg>
